<?xml version="1.0" standalone="no"?>
<!DOCTYPE svg PUBLIC "-//W3C//DTD SVG 20010904//EN"
 "http://www.w3.org/TR/2001/REC-SVG-20010904/DTD/svg10.dtd">
<svg version="1.0" xmlns="http://www.w3.org/2000/svg"
 width="1024.000000pt" height="1024.000000pt" viewBox="0 0 1024.000000 1024.000000"
 preserveAspectRatio="xMidYMid meet">
<metadata>
Created by potrace 1.14, written by Peter Selinger 2001-2017
</metadata>
<g transform="translate(0.000000,1024.000000) scale(0.100000,-0.100000)"
fill="#000000" stroke="none">
<path d="M0 5120 l0 -5120 5120 0 5120 0 0 5120 0 5120 -5120 0 -5120 0 0
-5120z m6223 3011 c1236 -450 2249 -820 2252 -822 4 -5 -260 -738 -269 -747
-3 -2 -87 26 -187 62 -100 37 -186 63 -189 59 -4 -4 -29 -66 -55 -138 -97
-265 -221 -468 -394 -648 -240 -248 -488 -397 -814 -487 -127 -36 -246 -88
-336 -149 -185 -126 -344 -337 -370 -492 -14 -82 -14 -283 -1 -367 25 -150 91
-312 190 -461 124 -186 191 -336 245 -546 47 -186 59 -294 52 -508 -7 -219
-24 -313 -103 -545 -31 -90 -54 -166 -52 -167 2 -2 84 -33 182 -69 99 -36 181
-67 183 -69 6 -7 -264 -741 -274 -744 -11 -4 -4493 1625 -4507 1637 -8 8 246
725 263 743 4 4 90 -22 190 -58 101 -37 184 -65 186 -63 2 2 22 55 45 118 147
402 370 692 705 915 165 111 289 166 555 250 203 64 383 189 521 363 133 166
165 268 156 502 -8 222 -55 359 -194 567 -191 287 -288 561 -312 883 -20 274
21 523 135 823 19 49 33 91 32 92 -2 2 -87 33 -190 70 l-187 68 18 46 c10 25
71 193 137 374 65 180 123 327 129 327 5 0 1022 -369 2258 -819z"/>
<path d="M4386 7788 c-70 -196 -86 -278 -93 -464 -4 -127 -2 -183 12 -265 35
-212 109 -390 248 -600 117 -176 183 -330 224 -522 28 -127 25 -449 -5 -577
-46 -201 -204 -445 -397 -614 -177 -154 -334 -240 -605 -329 -91 -30 -197 -71
-236 -90 -264 -133 -506 -376 -628 -630 -29 -60 -103 -249 -109 -280 -1 -5 81
-39 183 -76 l185 -68 110 101 c454 417 836 679 1140 782 100 34 120 38 220 38
99 1 116 -2 168 -26 196 -92 363 -391 482 -866 58 -231 86 -392 142 -796 l8
-59 185 -67 c126 -46 187 -64 192 -56 3 6 27 72 52 146 58 173 77 287 77 460
1 299 -71 529 -251 810 -109 170 -161 287 -204 457 -38 152 -49 260 -43 428
10 259 55 401 190 598 142 208 354 385 584 485 37 17 131 49 208 72 496 148
801 435 981 923 24 66 41 124 37 127 -10 9 -2960 1082 -2989 1088 -19 3 -26
-10 -68 -130z"/>
</g>
</svg>
